<svg xmlns="http://www.w3.org/2000/svg" xmlns:xlink="http://www.w3.org/1999/xlink" width="59.228515625" height="110.7421875"><path fill="white" d="M50.83 90.19L50.83 90.19L49.17 90.19Q48.97 87.84 48.22 85.67Q47.46 83.50 46.04 81.93L46.04 81.93L20.02 52.05Q18.36 52.88 16.89 53.93Q15.43 54.98 14.33 56.15Q13.23 57.32 12.60 58.59Q11.96 59.86 11.96 61.18L11.96 61.18Q11.96 65.33 16.21 71.68L16.21 71.68Q21.14 79.05 21.14 83.35L21.14 83.35Q21.14 89.11 16.75 89.11L16.75 89.11L6.79 89.11L6.79 87.50Q10.40 86.52 10.40 83.35L10.40 83.35Q10.40 81.40 8.11 75.49L8.11 75.49Q5.81 69.58 5.81 66.46L5.81 66.46Q5.81 61.57 8.76 57.25Q11.72 52.93 17.72 49.51L17.72 49.51L10.35 41.16Q5.71 35.84 5.71 30.18L5.71 30.18Q5.71 27.54 6.76 25.39Q7.81 23.24 9.91 20.95L9.91 20.95L11.47 20.95Q11.62 23.58 12.38 25.88Q13.13 28.17 14.60 29.83L14.60 29.83L37.16 55.47Q37.60 53.32 38.23 50.76Q38.87 48.19 39.72 45.63Q40.58 43.07 41.60 40.65Q42.63 38.23 43.85 36.33L43.85 36.33Q41.46 35.94 39.65 35.30Q37.84 34.67 36.65 33.67Q35.45 32.67 34.86 31.20Q34.28 29.74 34.28 27.73L34.28 27.73Q34.28 26.27 34.89 24.51Q35.50 22.75 36.77 20.95L36.77 20.95L38.33 20.95Q38.82 22.80 39.94 23.90Q41.06 25 42.92 25.49L42.92 25.49L48.10 26.76Q54.88 28.37 54.88 32.86L54.88 32.86Q54.88 33.79 54.74 34.57Q54.59 35.35 54.35 36.18L54.35 36.18Q52.34 36.77 47.80 36.77L47.80 36.77Q46.24 39.26 45.07 41.97Q43.90 44.68 43.12 47.24Q42.33 49.80 41.94 52.05Q41.55 54.30 41.55 55.86L41.55 55.86Q41.55 60.40 44.73 64.11L44.73 64.11L50.34 70.56Q55.03 75.93 55.03 81.59L55.03 81.59Q55.03 84.23 53.98 86.23Q52.93 88.23 50.83 90.19Z"/></svg>